<svg width="763" height="473" viewBox="0 0 763 473" fill="none" xmlns="http://www.w3.org/2000/svg">
<path d="M455 409.5L490 465H403L455 409.5Z" fill="#EEC924"/>
<path d="M318 410L358.5 465H272L318 410Z" fill="#EEC924"/>
<path d="M387.5 28.5L428.5 64.5L347 67L387.5 28.5Z" fill="#EEC924"/>
<path d="M508.5 368L455 409.5L490 465L508.5 368Z" fill="#EC65AD"/>
<path d="M271.5 369.5L319 411L272 465L271.5 369.5Z" fill="#EC65AD"/>
<path d="M436.5 7L386.5 29.5L428.5 64.5L436.5 7Z" fill="#EC65AD"/>
<path d="M508.5 368L497.5 272L618.5 327L508.5 368Z" fill="#0D6BCB"/>
<path d="M271.5 369.5L265 276L147.5 328.5L271.5 369.5Z" fill="#0D6BCB"/>
<path d="M618 327L497.5 272L661.5 226L618 327Z" fill="black"/>
<path d="M650.376 339.5L618 326.945L661.5 226L650.376 339.5Z" fill="#EC65AD"/>
<path d="M114 340.5L147.5 328.5L101.5 230L114 340.5Z" fill="#EC65AD"/>
<path d="M598.5 106.5L629 7L535 66L598.5 106.5Z" fill="black"/>
<path d="M281 131L230 66L347 65.9999L281 131Z" fill="black"/>
<path d="M169.492 106.5L133 7L230 66L169.492 106.5Z" fill="black"/>
<path d="M581 430.5L652.5 375L657.5 465L581 430.5Z" fill="#EC65AD"/>
<path d="M197.5 423.5L111 375.5L107.5 465L197.5 423.5Z" fill="#EC65AD"/>
<path d="M618 327L508.5 368L652.5 375L650.5 339.5L618 327Z" fill="#EEC924"/>
<path d="M147.5 328.5L271.5 369.5L112 376L114 340.5L147.5 328.5Z" fill="#EEC924"/>
<path d="M490 465L583.5 430.5L657.5 465H490Z" fill="#EEC924"/>
<path d="M107.5 465L197.5 423.5L272 465H107.5Z" fill="#EEC924"/>
<path d="M583.5 430.5L508.5 368L652.5 375L583.5 430.5Z" fill="black"/>
<path d="M197.5 423.5L112 376L271.5 369.5L197.5 423.5Z" fill="black"/>
<path d="M508.5 368L490 465L583.5 430.5L508.5 368Z" fill="#0D6BCB"/>
<path d="M271.5 369.5L272 465L197.5 423.5L271.5 369.5Z" fill="#0D6BCB"/>
<path d="M429 367.5L508.5 368L455 409.5L429 367.5Z" fill="black"/>
<path d="M333 7H436.5L386.5 29.5L333 7Z" fill="black"/>
<path d="M429 367.5L403 465L455 409.5L429 367.5Z" fill="#0D6BCB"/>
<path d="M347.5 368.5L358.5 465L318.5 410.5L347.5 368.5Z" fill="#0D6BCB"/>
<path d="M429 367.5L347.5 368.5L384 411L429 367.5Z" fill="#0D6BCB"/>
<path d="M147.5 328.5C186.167 311.167 263.4 276.8 265 276L101.5 230L147.5 328.5Z" fill="black"/>
<path d="M598.5 106.5L629 7L688.5 151L598.5 106.5Z" fill="#EC65AD"/>
<path d="M170 108.089L133 7L72 154.5L170 108.089Z" fill="#EC65AD"/>
<path d="M549 164.5L598.5 106.5L688.5 151L549 164.5Z" fill="#EEC924"/>
<path d="M212.5 168L170 107L73 153.5L212.5 168Z" fill="#EEC924"/>
<path d="M548.5 165L535 66L598.5 106.5L548.5 165Z" fill="#0D6BCB"/>
<path d="M212.5 168L230 66L169.5 106.5L212.5 168Z" fill="#0D6BCB"/>
<path d="M527.5 7L535 66.5L629 7H527.5Z" fill="#EEC924"/>
<path d="M239 7L230 66L133 7H239Z" fill="#EEC924"/>
<path d="M500.5 7C511.664 26.4986 534.594 66.0966 535 66.5L527.5 7H500.5Z" fill="#0D6BCB"/>
<path d="M269 7C256.38 26.6624 230.459 65.5932 230 66L238 7H269Z" fill="#0D6BCB"/>
<path d="M436.5 7L535 66.5L500.5 7H436.5Z" fill="#EC65AD"/>
<path d="M333 7L230 66L269 7H333Z" fill="#EC65AD"/>
<path d="M548.5 165L479.5 120L535 66L548.5 165Z" fill="#EC65AD"/>
<path d="M212.5 168L281.5 130.5L230 66L212.5 168Z" fill="#EC65AD"/>
<path d="M212.5 168L307.5 235.5L265 276L212.5 168Z" fill="#EC65AD"/>
<path d="M481.5 231.5L548.5 164.5L497.5 272L481.5 231.5Z" fill="#EC65AD"/>
<path d="M347.5 67L389.5 167L429 64.5001L347.5 67Z" fill="#EC65AD"/>
<path d="M312.5 186.5L361.5 277.5L387 219L312.5 186.5Z" fill="#EC65AD"/>
<path d="M397 253L437 261L444.5 194.5L397 253Z" fill="#EC65AD"/>
<path d="M497.5 272L456.5 322L508.5 368L497.5 272Z" fill="#EC65AD"/>
<path d="M397 253L429 367.5L383 325.5L397 253Z" fill="#EC65AD"/>
<path d="M265 276L313 321.5L271.5 369.5L265 276Z" fill="#EC65AD"/>
<path d="M428.5 64.5L479.5 120L535 66.5L428.5 64.5Z" fill="black"/>
<path d="M428.5 64.5L389 166.5L445 194.5L428.5 64.5Z" fill="black"/>
<path d="M444.5 194.5L312.5 186.5L384 223L444.5 194.5Z" fill="black"/>
<path d="M428.5 64.5L436.5 7L535 66.5L428.5 64.5Z" fill="#EEC924"/>
<path d="M347 66.5L333 7L230 66L347 66.5Z" fill="#EEC924"/>
<path d="M444.5 195.5L479.5 120L548 164.5L444.5 195.5Z" fill="#EEC924"/>
<path d="M482 231.5L437 260.5L497.5 272L482 231.5Z" fill="#EEC924"/>
<path d="M457 322L429 367.5L508.5 368L457 322Z" fill="#EEC924"/>
<path d="M361.5 277.5L347.5 368.5L383 325.5L361.5 277.5Z" fill="#EEC924"/>
<path d="M312 322.5L271.5 369.5L347.5 368.5L312 322.5Z" fill="#EEC924"/>
<path d="M306 234.5L265 276L361.5 277.5L306 234.5Z" fill="#EEC924"/>
<path d="M347.5 66.5L389 166L312.5 186.5L347.5 66.5Z" fill="#EEC924"/>
<path d="M384 223L397 253L361 278L384 223Z" fill="#EEC924"/>
<path d="M312.5 186.5L212.5 168L281 130.5L312.5 186.5Z" fill="#EEC924"/>
<path d="M444.5 195.5L428.5 64.5L479.5 120L444.5 195.5Z" fill="#0D6BCB"/>
<path d="M397 253L444.5 194.5L384 223L397 253Z" fill="#0D6BCB"/>
<path d="M348.5 64.5L312.5 186.5L280.5 130.5L348.5 64.5Z" fill="#0D6BCB"/>
<path d="M429 367.5L403 465L384 411L429 367.5Z" fill="#EC65AD"/>
<path d="M312.5 186.5L212.5 168L307.5 235.5L312.5 186.5Z" fill="black"/>
<path d="M445 195.08L548.5 164.5L482 231.5L445 195.08Z" fill="black"/>
<path d="M397 253L497.5 272L456.5 322.5L397 253Z" fill="black"/>
<path d="M347.5 368.5L429 367.5L383 325.5L347.5 368.5Z" fill="black"/>
<path d="M265 276L361.5 277.5L312.025 322.5L265 276Z" fill="black"/>
<path d="M403 465H358.5L384 411L403 465Z" fill="black"/>
<path d="M347.5 368.5L271.5 369.5L319.5 411.5L347.5 368.5Z" fill="black"/>
<path d="M358.5 465L347.5 368.5L384 411L358.5 465Z" fill="#EEC924"/>
<path d="M312.5 186.5L306 234.5L361.5 277.5L312.5 186.5Z" fill="#0D6BCB"/>
<path d="M444.5 194.5L482 231.5L437 260.5L444.5 194.5Z" fill="#0D6BCB"/>
<path d="M397 253L456.5 322.5L429 367.5L397 253Z" fill="#0D6BCB"/>
<path d="M397 253L383 325.5L361.5 277.5L397 253Z" fill="#0D6BCB"/>
<path d="M361.5 277.5L312 322.5L347.5 368.5L361.5 277.5Z" fill="#0D6BCB"/>
<path d="M445 194.5L312.5 186.5L389.5 165.5L445 194.5Z" fill="#0D6BCB"/>
<path d="M333 7.00003L347 67.5L386.5 29.5L333 7.00003Z" fill="#0D6BCB"/>
<path d="M688.5 151L548.5 164.5L587 212.5L688.5 151Z" fill="black"/>
<path d="M73 153.5L212.5 168L174.5 215.5L73 153.5Z" fill="black"/>
<path d="M657.5 465L650.5 339.5L713 430L657.5 465Z" fill="#0D6BCB"/>
<path d="M107.5 465L114 340.5L52 430.5L107.5 465Z" fill="#0D6BCB"/>
<path d="M761.5 465V446.5L711.486 429.5L657.5 465H761.5Z" fill="#EEC924"/>
<path d="M1.5 465V447L52 430.5L107.5 465L1.5 465Z" fill="#EEC924"/>
<path d="M761.5 414.5V396L650.5 339.5L711.5 429.5L761.5 414.5Z" fill="black"/>
<path d="M1.5 415.5V395.5L114 340.5L52.2265 430.5L1.5 415.5Z" fill="black"/>
<path d="M761.5 396V359.5L725 295.5L650.5 339.5L761.5 396Z" fill="#EEC924"/>
<path d="M1.5 396V360.5L39 293.5L114 340.5L1.5 396Z" fill="#EEC924"/>
<path d="M761.5 359.5V287L725 295.5L761.5 359.5Z" fill="#EC65AD"/>
<path d="M1.5 360.5V292L39 293.5L1.5 360.5Z" fill="#EC65AD"/>
<path d="M761.5 287V220L661.5 226L725 295.5L761.5 287Z" fill="black"/>
<path d="M1 291.944V224.5L101.5 230L39 293.5L1 291.944Z" fill="black"/>
<path d="M650.5 339.5L661.5 226L725 295.5L650.5 339.5Z" fill="#0D6BCB"/>
<path d="M114 340.5L101.5 230L39 293.5L114 340.5Z" fill="#0D6BCB"/>
<path d="M688.5 151L629 7L736 70.5L688.5 151Z" fill="#0D6BCB"/>
<path d="M73 153.5L133 7L28 72L73 153.5Z" fill="#0D6BCB"/>
<path d="M735.5 70.5L651 20.5L629 7L762 5.5V41.5L735.5 70.5Z" fill="black"/>
<path d="M1.5 43L28 72L70.5 46L112.5 20L133 7L1.5 6.5V43Z" fill="black"/>
<path d="M761.5 220L661.5 226L716.5 183.5L761.5 220Z" fill="#EEC924"/>
<path d="M101.5 230L1 224.428L46.5 188L101.5 230Z" fill="#EEC924"/>
<path d="M716 185L761.5 220V179L762 138L716 185Z" fill="#EC65AD"/>
<path d="M1.5 224.5V142L46 189L1.5 224.5Z" fill="#EC65AD"/>
<path d="M28 72L73 153.5L1.5 118L28 72Z" fill="#EEC924"/>
<path d="M735.5 70.5L688.5 151L762 114L735.5 70.5Z" fill="#EEC924"/>
<path d="M762 41.5L735.5 70.5L762 114V41.5Z" fill="#EC65AD"/>
<path d="M1.5 43L28 72L1.5 118V43Z" fill="#EC65AD"/>
<path d="M1.5 118L73 153.5L46 189L1.5 142V118Z" fill="black"/>
<path d="M762 113.5L688 150.762L716 185L762 138V113.5Z" fill="black"/>
<path d="M716.5 184.5L688.5 151L661.5 226L716.5 184.5Z" fill="#0D6BCB"/>
<path d="M46 189L73 153.5L101.5 230L46 189Z" fill="#0D6BCB"/>
<path d="M548.5 164.5L587 211.5L497.5 272L548.5 164.5Z" fill="#0D6BCB"/>
<path d="M212.5 168L175 214.717L265 276L212.5 168Z" fill="#0D6BCB"/>
<path d="M688.5 151L661.5 226L587 211.5L688.5 151Z" fill="#EC65AD"/>
<path d="M73 153.5L101.5 230L175.5 215L73 153.5Z" fill="#EC65AD"/>
<path d="M587 211.5L497.5 272L661.5 226L587 211.5Z" fill="#EEC924"/>
<path d="M175.5 214.5L265 276L101.5 230L175.5 214.5Z" fill="#EEC924"/>
<path d="M761.5 446.5V414.5L711.5 429.5L761.5 446.5Z" fill="#EC65AD"/>
<path d="M1.5 447V413.5L52 430.5L1.5 447Z" fill="#EC65AD"/>
<path d="M0 467.5H761V0H0V467.5Z" fill="black" fill-opacity="0.75"/>
</svg>
